<svg width="32" height="32" viewBox="0 0 32 32" fill="none" xmlns="http://www.w3.org/2000/svg">
<path d="M22.55 30H10.45C7.16 30 4.5 27.34 4.5 24.05V12.03C4.5 8.7 7.2 6 10.53 6H22.48C25.8 6 28.5 8.7 28.5 12.03V24.06C28.5 27.34 25.84 30 22.55 30Z" fill="url(#paint0_radial_1_51)"/>
<path d="M22.55 30H10.45C7.16 30 4.5 27.34 4.5 24.05V12.03C4.5 8.7 7.2 6 10.53 6H22.48C25.8 6 28.5 8.7 28.5 12.03V24.06C28.5 27.34 25.84 30 22.55 30Z" fill="url(#paint1_linear_1_51)"/>
<path d="M22.55 30H10.45C7.16 30 4.5 27.34 4.5 24.05V12.03C4.5 8.7 7.2 6 10.53 6H22.48C25.8 6 28.5 8.7 28.5 12.03V24.06C28.5 27.34 25.84 30 22.55 30Z" fill="url(#paint2_linear_1_51)"/>
<path d="M22.55 30H10.45C7.16 30 4.5 27.34 4.5 24.05V12.03C4.5 8.7 7.2 6 10.53 6H22.48C25.8 6 28.5 8.7 28.5 12.03V24.06C28.5 27.34 25.84 30 22.55 30Z" fill="url(#paint3_radial_1_51)"/>
<path fill-rule="evenodd" clip-rule="evenodd" d="M28.5 13.09V4H29.5V13.09H28.5Z" fill="url(#paint4_linear_1_51)"/>
<path d="M29 5.1C29.8561 5.1 30.55 4.40604 30.55 3.55C30.55 2.69396 29.8561 2 29 2C28.144 2 27.45 2.69396 27.45 3.55C27.45 4.40604 28.144 5.1 29 5.1Z" fill="url(#paint5_radial_1_51)"/>
<path d="M28.5 22.9401V11.9301C29.6 11.9301 30.5 12.8301 30.5 13.9301V20.9401C30.5 22.0401 29.6 22.9401 28.5 22.9401Z" fill="url(#paint6_linear_1_51)"/>
<path d="M28.5 22.9401V11.9301C29.6 11.9301 30.5 12.8301 30.5 13.9301V20.9401C30.5 22.0401 29.6 22.9401 28.5 22.9401Z" fill="url(#paint7_radial_1_51)"/>
<path d="M28.5 22.9401V11.9301C29.6 11.9301 30.5 12.8301 30.5 13.9301V20.9401C30.5 22.0401 29.6 22.9401 28.5 22.9401Z" fill="url(#paint8_radial_1_51)"/>
<path opacity="0.3" fill-rule="evenodd" clip-rule="evenodd" d="M29 11L29 5L29.25 5L29.25 11L29 11Z" fill="url(#paint9_linear_1_51)"/>
<path fill-rule="evenodd" clip-rule="evenodd" d="M3.5 13.05V3.94995H4.5V13.05H3.5Z" fill="url(#paint10_linear_1_51)"/>
<path d="M4.5 12V23C3.4 23 2.5 22.1008 2.5 21.0018V13.9982C2.5 12.8992 3.4 12 4.5 12Z" fill="url(#paint11_linear_1_51)"/>
<path d="M4 5C4.82843 5 5.5 4.32843 5.5 3.5C5.5 2.67157 4.82843 2 4 2C3.17157 2 2.5 2.67157 2.5 3.5C2.5 4.32843 3.17157 5 4 5Z" fill="url(#paint12_radial_1_51)"/>
<path opacity="0.3" fill-rule="evenodd" clip-rule="evenodd" d="M4 11L4 5L4.25 5L4.25 11L4 11Z" fill="url(#paint13_linear_1_51)"/>
<path d="M23.2526 18.5H9.74738C7.4078 18.5 5.5 16.591 5.5 14.25C5.5 11.909 7.4078 10 9.74738 10H23.2526C25.5922 10 27.5 11.909 27.5 14.25C27.5 16.581 25.5822 18.5 23.2526 18.5Z" fill="url(#paint14_linear_1_51)"/>
<path d="M19.0282 26H13.9718C13.1608 26 12.5 25.3265 12.5 24.5C12.5 23.6735 13.1608 23 13.9718 23H19.0282C19.8392 23 20.5 23.6735 20.5 24.5C20.5 25.3265 19.8392 26 19.0282 26Z" fill="url(#paint15_linear_1_51)"/>
<rect x="7.5" y="12" width="4.5" height="6" rx="2" fill="url(#paint16_radial_1_51)"/>
<rect x="19" y="12" width="4.5" height="6" rx="2" fill="url(#paint17_radial_1_51)"/>
<rect x="9.5" y="12" width="2.5" height="5" rx="1.25" fill="url(#paint18_linear_1_51)"/>
<rect x="9.5" y="12" width="2.5" height="5" rx="1.25" fill="url(#paint19_radial_1_51)"/>
<rect x="21" y="12" width="2.5" height="5" rx="1.25" fill="url(#paint20_linear_1_51)"/>
<rect x="21" y="12" width="2.5" height="5" rx="1.25" fill="url(#paint21_radial_1_51)"/>
<ellipse cx="29.5" cy="13.5" rx="1" ry="1.5" fill="url(#paint22_radial_1_51)"/>
<defs>
<radialGradient id="paint0_radial_1_51" cx="0" cy="0" r="1" gradientUnits="userSpaceOnUse" gradientTransform="translate(25.5 11.5) rotate(141.911) scale(23.5053)">
<stop stop-color="#EEEBF0"/>
<stop offset="0.493469" stop-color="#D1BEE3"/>
<stop offset="1" stop-color="#D0BCE2"/>
</radialGradient>
<linearGradient id="paint1_linear_1_51" x1="12.7211" y1="18" x2="4.5" y2="18" gradientUnits="userSpaceOnUse">
<stop stop-color="#D5B2C0" stop-opacity="0"/>
<stop offset="1" stop-color="#B4878D"/>
</linearGradient>
<linearGradient id="paint2_linear_1_51" x1="16.5" y1="26.8609" x2="16.5" y2="30" gradientUnits="userSpaceOnUse">
<stop stop-color="#B17EDB" stop-opacity="0"/>
<stop offset="1" stop-color="#A56BD6" stop-opacity="0.7"/>
</linearGradient>
<radialGradient id="paint3_radial_1_51" cx="0" cy="0" r="1" gradientUnits="userSpaceOnUse" gradientTransform="translate(20.8125 13.375) rotate(-3.2195) scale(10.0158 12.8742)">
<stop stop-color="#F0EAF6"/>
<stop offset="1" stop-color="#E7E0EF" stop-opacity="0"/>
</radialGradient>
<linearGradient id="paint4_linear_1_51" x1="29.5" y1="4" x2="29.5" y2="13.09" gradientUnits="userSpaceOnUse">
<stop stop-color="#E6007E"/>
<stop offset="1" stop-color="#E6007E"/>
</linearGradient>
<radialGradient id="paint5_radial_1_51" cx="0" cy="0" r="1" gradientUnits="userSpaceOnUse" gradientTransform="translate(29.5167 3.03333) rotate(104.036) scale(2.13027)">
<stop stop-color="#FF6C82"/>
<stop offset="0.441384" stop-color="#FF2455"/>
<stop offset="1" stop-color="#D9206C"/>
</radialGradient>
<linearGradient id="paint6_linear_1_51" x1="29.5" y1="11.9301" x2="29.5" y2="22.9401" gradientUnits="userSpaceOnUse">
<stop stop-color="#FF30AA"/>
<stop offset="1" stop-color="#E6007E"/>
</linearGradient>
<radialGradient id="paint7_radial_1_51" cx="0" cy="0" r="1" gradientUnits="userSpaceOnUse" gradientTransform="translate(29.5 17.4351) rotate(90) scale(5.505 0.55944)">
<stop stop-color="#FF97D0"/>
<stop offset="1" stop-color="#FF73C1" stop-opacity="0"/>
</radialGradient>
<radialGradient id="paint8_radial_1_51" cx="0" cy="0" r="1" gradientUnits="userSpaceOnUse" gradientTransform="translate(30.3 12.3333) rotate(96.9112) scale(2.2161 1.6225)">
<stop stop-color="#FF97D0"/>
<stop offset="1" stop-color="#FF6EBF" stop-opacity="0"/>
</radialGradient>
<linearGradient id="paint9_linear_1_51" x1="29" y1="7" x2="29" y2="9" gradientUnits="userSpaceOnUse">
<stop stop-color="#FF96CB"/>
<stop offset="1" stop-color="#FF6DB7" stop-opacity="0"/>
</linearGradient>
<linearGradient id="paint10_linear_1_51" x1="4.5" y1="3.94995" x2="4.5" y2="13.05" gradientUnits="userSpaceOnUse">
<stop stop-color="#E6007E"/>
<stop offset="1" stop-color="#B80065"/>
</linearGradient>
<linearGradient id="paint11_linear_1_51" x1="3.5" y1="12" x2="3.5" y2="23" gradientUnits="userSpaceOnUse">
<stop stop-color="#E93273"/>
<stop offset="1" stop-color="#9F0057"/>
</linearGradient>
<radialGradient id="paint12_radial_1_51" cx="0" cy="0" r="1" gradientUnits="userSpaceOnUse" gradientTransform="translate(4.5 3) rotate(104.036) scale(2.06155)">
<stop stop-color="#FF6C82"/>
<stop offset="0.441384" stop-color="#FF2455"/>
<stop offset="1" stop-color="#D9206C"/>
</radialGradient>
<linearGradient id="paint13_linear_1_51" x1="4" y1="7" x2="4" y2="9" gradientUnits="userSpaceOnUse">
<stop stop-color="#FF96CB"/>
<stop offset="1" stop-color="#FF6DB7" stop-opacity="0"/>
</linearGradient>
<linearGradient id="paint14_linear_1_51" x1="16.4982" y1="17.7006" x2="16.4982" y2="11.3908" gradientUnits="userSpaceOnUse">
<stop offset="0.00558659" stop-color="#443E75"/>
<stop offset="1" stop-color="#2F1A3B"/>
</linearGradient>
<linearGradient id="paint15_linear_1_51" x1="16.4982" y1="25.6859" x2="16.4982" y2="22.8893" gradientUnits="userSpaceOnUse">
<stop offset="0.00558659" stop-color="#39325E"/>
<stop offset="1" stop-color="#2B1831"/>
</linearGradient>
<radialGradient id="paint16_radial_1_51" cx="0" cy="0" r="1" gradientUnits="userSpaceOnUse" gradientTransform="translate(10 15) rotate(168.69) scale(2.54951 3.48912)">
<stop stop-color="#322649"/>
<stop offset="1" stop-color="#342950" stop-opacity="0"/>
</radialGradient>
<radialGradient id="paint17_radial_1_51" cx="0" cy="0" r="1" gradientUnits="userSpaceOnUse" gradientTransform="translate(21.5 15) rotate(168.69) scale(2.54951 3.48912)">
<stop stop-color="#322649"/>
<stop offset="1" stop-color="#342950" stop-opacity="0"/>
</radialGradient>
<linearGradient id="paint18_linear_1_51" x1="12" y1="14" x2="9.5" y2="14" gradientUnits="userSpaceOnUse">
<stop stop-color="#29B6FE"/>
<stop offset="1" stop-color="#1769A8"/>
</linearGradient>
<radialGradient id="paint19_radial_1_51" cx="0" cy="0" r="1" gradientUnits="userSpaceOnUse" gradientTransform="translate(11.5 13.5) rotate(90) scale(2.5 1.14393)">
<stop stop-color="#54C8FF"/>
<stop offset="1" stop-color="#54C8FF" stop-opacity="0"/>
</radialGradient>
<linearGradient id="paint20_linear_1_51" x1="23.5" y1="14" x2="21" y2="14" gradientUnits="userSpaceOnUse">
<stop stop-color="#29B6FE"/>
<stop offset="1" stop-color="#1769A8"/>
</linearGradient>
<radialGradient id="paint21_radial_1_51" cx="0" cy="0" r="1" gradientUnits="userSpaceOnUse" gradientTransform="translate(23 13.5) rotate(90) scale(2.5 1.14393)">
<stop stop-color="#54C8FF"/>
<stop offset="1" stop-color="#54C8FF" stop-opacity="0"/>
</radialGradient>
<radialGradient id="paint22_radial_1_51" cx="0" cy="0" r="1" gradientUnits="userSpaceOnUse" gradientTransform="translate(29.5 13.5) rotate(90) scale(1.5 1)">
<stop stop-color="#FF97D0"/>
<stop offset="1" stop-color="#FF6EBF" stop-opacity="0"/>
</radialGradient>
</defs>
</svg>
